<mxfile host="app.diagrams.net" modified="2021-05-20T01:15:49.767Z" agent="5.0 (Macintosh; Intel Mac OS X 10_15_7) AppleWebKit/537.36 (KHTML, like Gecko) Chrome/90.0.4430.212 Safari/537.36" etag="ZFHYrfmmJiimRzBDZmOy" version="14.6.13" type="github">
  <diagram id="0UI5GFS8vEEGNH2TXPH4" name="Page-1">
    <mxGraphModel dx="1456" dy="614" grid="1" gridSize="10" guides="1" tooltips="1" connect="1" arrows="1" fold="1" page="1" pageScale="1" pageWidth="1200" pageHeight="1920" math="0" shadow="0">
      <root>
        <mxCell id="0" />
        <mxCell id="1" parent="0" />
        <mxCell id="umjPsCXi-9pZYWTlShho-3" value="个人信息" style="rounded=0;whiteSpace=wrap;html=1;" parent="1" vertex="1">
          <mxGeometry x="10" y="120" width="120" height="60" as="geometry" />
        </mxCell>
        <mxCell id="umjPsCXi-9pZYWTlShho-11" style="edgeStyle=orthogonalEdgeStyle;rounded=0;orthogonalLoop=1;jettySize=auto;html=1;exitX=0;exitY=0.5;exitDx=0;exitDy=0;entryX=1;entryY=0.5;entryDx=0;entryDy=0;" parent="1" source="umjPsCXi-9pZYWTlShho-4" target="umjPsCXi-9pZYWTlShho-3" edge="1">
          <mxGeometry relative="1" as="geometry">
            <Array as="points">
              <mxPoint x="170" y="225" />
              <mxPoint x="170" y="150" />
            </Array>
          </mxGeometry>
        </mxCell>
        <mxCell id="umjPsCXi-9pZYWTlShho-4" value="个人信息详情&lt;br&gt;账户积分&lt;br&gt;家庭地址&lt;br&gt;家庭账户&lt;br&gt;账户余额&lt;br&gt;基本信息" style="rounded=0;whiteSpace=wrap;html=1;" parent="1" vertex="1">
          <mxGeometry x="220" y="170" width="100" height="110" as="geometry" />
        </mxCell>
        <mxCell id="umjPsCXi-9pZYWTlShho-12" style="edgeStyle=orthogonalEdgeStyle;rounded=0;orthogonalLoop=1;jettySize=auto;html=1;exitX=0;exitY=0.5;exitDx=0;exitDy=0;entryX=1;entryY=0.5;entryDx=0;entryDy=0;" parent="1" source="umjPsCXi-9pZYWTlShho-7" target="umjPsCXi-9pZYWTlShho-3" edge="1">
          <mxGeometry relative="1" as="geometry">
            <Array as="points">
              <mxPoint x="170" y="65" />
              <mxPoint x="170" y="150" />
            </Array>
          </mxGeometry>
        </mxCell>
        <mxCell id="umjPsCXi-9pZYWTlShho-7" value="家庭用电模块&lt;br&gt;历史用电统计、年份、季度、月份&lt;br&gt;缴费记录&lt;br&gt;欠费记录" style="rounded=0;whiteSpace=wrap;html=1;" parent="1" vertex="1">
          <mxGeometry x="220" width="100" height="130" as="geometry" />
        </mxCell>
        <mxCell id="umjPsCXi-9pZYWTlShho-9" value="缴费模块" style="whiteSpace=wrap;html=1;" parent="1" vertex="1">
          <mxGeometry x="370" y="140" width="120" height="60" as="geometry" />
        </mxCell>
        <mxCell id="umjPsCXi-9pZYWTlShho-29" style="edgeStyle=orthogonalEdgeStyle;rounded=0;orthogonalLoop=1;jettySize=auto;html=1;entryX=1;entryY=0.5;entryDx=0;entryDy=0;" parent="1" source="umjPsCXi-9pZYWTlShho-13" target="umjPsCXi-9pZYWTlShho-9" edge="1">
          <mxGeometry relative="1" as="geometry">
            <mxPoint x="500" y="220" as="targetPoint" />
            <Array as="points">
              <mxPoint x="520" y="80" />
              <mxPoint x="520" y="170" />
            </Array>
          </mxGeometry>
        </mxCell>
        <mxCell id="umjPsCXi-9pZYWTlShho-30" style="edgeStyle=orthogonalEdgeStyle;rounded=0;orthogonalLoop=1;jettySize=auto;html=1;entryX=0.5;entryY=0;entryDx=0;entryDy=0;" parent="1" source="umjPsCXi-9pZYWTlShho-13" target="umjPsCXi-9pZYWTlShho-21" edge="1">
          <mxGeometry relative="1" as="geometry" />
        </mxCell>
        <mxCell id="umjPsCXi-9pZYWTlShho-13" value="查询缴费" style="rounded=0;whiteSpace=wrap;html=1;" parent="1" vertex="1">
          <mxGeometry x="560" y="50" width="120" height="60" as="geometry" />
        </mxCell>
        <mxCell id="umjPsCXi-9pZYWTlShho-24" style="edgeStyle=orthogonalEdgeStyle;rounded=0;orthogonalLoop=1;jettySize=auto;html=1;entryX=1;entryY=0.5;entryDx=0;entryDy=0;" parent="1" source="umjPsCXi-9pZYWTlShho-14" target="umjPsCXi-9pZYWTlShho-9" edge="1">
          <mxGeometry relative="1" as="geometry">
            <mxPoint x="520" y="170" as="targetPoint" />
            <Array as="points">
              <mxPoint x="500" y="170" />
              <mxPoint x="500" y="170" />
            </Array>
          </mxGeometry>
        </mxCell>
        <mxCell id="umjPsCXi-9pZYWTlShho-31" style="edgeStyle=orthogonalEdgeStyle;rounded=0;orthogonalLoop=1;jettySize=auto;html=1;entryX=0;entryY=0.5;entryDx=0;entryDy=0;" parent="1" source="umjPsCXi-9pZYWTlShho-14" target="umjPsCXi-9pZYWTlShho-21" edge="1">
          <mxGeometry relative="1" as="geometry" />
        </mxCell>
        <mxCell id="umjPsCXi-9pZYWTlShho-14" value="账户充值" style="rounded=0;whiteSpace=wrap;html=1;" parent="1" vertex="1">
          <mxGeometry x="560" y="140" width="120" height="60" as="geometry" />
        </mxCell>
        <mxCell id="umjPsCXi-9pZYWTlShho-25" style="edgeStyle=orthogonalEdgeStyle;rounded=0;orthogonalLoop=1;jettySize=auto;html=1;" parent="1" source="umjPsCXi-9pZYWTlShho-16" edge="1">
          <mxGeometry relative="1" as="geometry">
            <mxPoint x="490" y="170" as="targetPoint" />
            <Array as="points">
              <mxPoint x="520" y="260" />
              <mxPoint x="520" y="170" />
            </Array>
          </mxGeometry>
        </mxCell>
        <mxCell id="umjPsCXi-9pZYWTlShho-16" value="积分服务" style="whiteSpace=wrap;html=1;" parent="1" vertex="1">
          <mxGeometry x="560" y="230" width="120" height="60" as="geometry" />
        </mxCell>
        <mxCell id="umjPsCXi-9pZYWTlShho-32" style="edgeStyle=orthogonalEdgeStyle;rounded=0;orthogonalLoop=1;jettySize=auto;html=1;entryX=1;entryY=0.5;entryDx=0;entryDy=0;" parent="1" source="umjPsCXi-9pZYWTlShho-21" target="umjPsCXi-9pZYWTlShho-16" edge="1">
          <mxGeometry relative="1" as="geometry">
            <Array as="points">
              <mxPoint x="810" y="260" />
            </Array>
          </mxGeometry>
        </mxCell>
        <mxCell id="umjPsCXi-9pZYWTlShho-21" value="充值缴费送积分&lt;br&gt;积分兑换商品" style="whiteSpace=wrap;html=1;" parent="1" vertex="1">
          <mxGeometry x="750" y="140" width="120" height="60" as="geometry" />
        </mxCell>
        <mxCell id="umjPsCXi-9pZYWTlShho-33" value="商品服务" style="whiteSpace=wrap;html=1;" parent="1" vertex="1">
          <mxGeometry x="10" y="430" width="120" height="60" as="geometry" />
        </mxCell>
        <mxCell id="umjPsCXi-9pZYWTlShho-38" style="edgeStyle=orthogonalEdgeStyle;rounded=0;orthogonalLoop=1;jettySize=auto;html=1;entryX=1;entryY=0.5;entryDx=0;entryDy=0;" parent="1" source="umjPsCXi-9pZYWTlShho-34" target="umjPsCXi-9pZYWTlShho-33" edge="1">
          <mxGeometry relative="1" as="geometry">
            <Array as="points">
              <mxPoint x="230" y="350" />
              <mxPoint x="230" y="460" />
            </Array>
          </mxGeometry>
        </mxCell>
        <mxCell id="umjPsCXi-9pZYWTlShho-34" value="库存信息" style="whiteSpace=wrap;html=1;" parent="1" vertex="1">
          <mxGeometry x="260" y="320" width="120" height="60" as="geometry" />
        </mxCell>
        <mxCell id="umjPsCXi-9pZYWTlShho-39" style="edgeStyle=orthogonalEdgeStyle;rounded=0;orthogonalLoop=1;jettySize=auto;html=1;" parent="1" source="umjPsCXi-9pZYWTlShho-35" edge="1">
          <mxGeometry relative="1" as="geometry">
            <mxPoint x="130" y="460" as="targetPoint" />
            <Array as="points">
              <mxPoint x="230" y="420" />
              <mxPoint x="230" y="460" />
            </Array>
          </mxGeometry>
        </mxCell>
        <mxCell id="umjPsCXi-9pZYWTlShho-35" value="商品列表" style="whiteSpace=wrap;html=1;" parent="1" vertex="1">
          <mxGeometry x="260" y="390" width="120" height="60" as="geometry" />
        </mxCell>
        <mxCell id="umjPsCXi-9pZYWTlShho-40" style="edgeStyle=orthogonalEdgeStyle;rounded=0;orthogonalLoop=1;jettySize=auto;html=1;" parent="1" source="umjPsCXi-9pZYWTlShho-36" edge="1">
          <mxGeometry relative="1" as="geometry">
            <mxPoint x="130" y="460" as="targetPoint" />
            <Array as="points">
              <mxPoint x="230" y="500" />
              <mxPoint x="230" y="460" />
            </Array>
          </mxGeometry>
        </mxCell>
        <mxCell id="umjPsCXi-9pZYWTlShho-36" value="商品编辑" style="whiteSpace=wrap;html=1;" parent="1" vertex="1">
          <mxGeometry x="260" y="470" width="120" height="60" as="geometry" />
        </mxCell>
        <mxCell id="umjPsCXi-9pZYWTlShho-41" style="edgeStyle=orthogonalEdgeStyle;rounded=0;orthogonalLoop=1;jettySize=auto;html=1;entryX=1;entryY=0.5;entryDx=0;entryDy=0;" parent="1" source="umjPsCXi-9pZYWTlShho-37" target="umjPsCXi-9pZYWTlShho-33" edge="1">
          <mxGeometry relative="1" as="geometry">
            <Array as="points">
              <mxPoint x="230" y="580" />
              <mxPoint x="230" y="460" />
            </Array>
          </mxGeometry>
        </mxCell>
        <mxCell id="umjPsCXi-9pZYWTlShho-37" value="销量统计" style="whiteSpace=wrap;html=1;" parent="1" vertex="1">
          <mxGeometry x="260" y="550" width="120" height="60" as="geometry" />
        </mxCell>
        <mxCell id="sV1ge9_GlTx5dRnqZGnU-2" value="" style="rounded=1;whiteSpace=wrap;html=1;fillColor=#f5f5f5;strokeColor=#666666;fontColor=#333333;" vertex="1" parent="1">
          <mxGeometry x="80" y="710" width="630" height="470" as="geometry" />
        </mxCell>
        <mxCell id="sV1ge9_GlTx5dRnqZGnU-7" style="edgeStyle=orthogonalEdgeStyle;rounded=0;orthogonalLoop=1;jettySize=auto;html=1;" edge="1" parent="1" source="sV1ge9_GlTx5dRnqZGnU-3" target="sV1ge9_GlTx5dRnqZGnU-5">
          <mxGeometry relative="1" as="geometry" />
        </mxCell>
        <mxCell id="sV1ge9_GlTx5dRnqZGnU-18" value="登录" style="edgeLabel;html=1;align=center;verticalAlign=middle;resizable=0;points=[];" vertex="1" connectable="0" parent="sV1ge9_GlTx5dRnqZGnU-7">
          <mxGeometry x="-0.2333" y="1" relative="1" as="geometry">
            <mxPoint as="offset" />
          </mxGeometry>
        </mxCell>
        <mxCell id="sV1ge9_GlTx5dRnqZGnU-3" value="User" style="rounded=1;whiteSpace=wrap;html=1;fillColor=#dae8fc;strokeColor=#6c8ebf;" vertex="1" parent="1">
          <mxGeometry x="190" y="750" width="100" height="40" as="geometry" />
        </mxCell>
        <mxCell id="sV1ge9_GlTx5dRnqZGnU-4" value="eureka" style="rounded=1;whiteSpace=wrap;html=1;fillColor=#60a917;strokeColor=#2D7600;fontColor=#ffffff;" vertex="1" parent="1">
          <mxGeometry x="500" y="850" width="100" height="40" as="geometry" />
        </mxCell>
        <mxCell id="sV1ge9_GlTx5dRnqZGnU-8" style="edgeStyle=orthogonalEdgeStyle;rounded=0;orthogonalLoop=1;jettySize=auto;html=1;entryX=0;entryY=0.5;entryDx=0;entryDy=0;" edge="1" parent="1" source="sV1ge9_GlTx5dRnqZGnU-5" target="sV1ge9_GlTx5dRnqZGnU-4">
          <mxGeometry relative="1" as="geometry" />
        </mxCell>
        <mxCell id="sV1ge9_GlTx5dRnqZGnU-19" value="服务注册" style="edgeLabel;html=1;align=center;verticalAlign=middle;resizable=0;points=[];" vertex="1" connectable="0" parent="sV1ge9_GlTx5dRnqZGnU-8">
          <mxGeometry x="-0.1238" y="1" relative="1" as="geometry">
            <mxPoint as="offset" />
          </mxGeometry>
        </mxCell>
        <mxCell id="sV1ge9_GlTx5dRnqZGnU-23" style="edgeStyle=orthogonalEdgeStyle;rounded=0;orthogonalLoop=1;jettySize=auto;html=1;exitX=0.5;exitY=1;exitDx=0;exitDy=0;entryX=0.5;entryY=0;entryDx=0;entryDy=0;" edge="1" parent="1" source="sV1ge9_GlTx5dRnqZGnU-5" target="sV1ge9_GlTx5dRnqZGnU-9">
          <mxGeometry relative="1" as="geometry" />
        </mxCell>
        <mxCell id="sV1ge9_GlTx5dRnqZGnU-5" value="gateway" style="rounded=1;whiteSpace=wrap;html=1;fillColor=#fff2cc;strokeColor=#d6b656;" vertex="1" parent="1">
          <mxGeometry x="190" y="850" width="100" height="40" as="geometry" />
        </mxCell>
        <mxCell id="sV1ge9_GlTx5dRnqZGnU-10" style="edgeStyle=orthogonalEdgeStyle;rounded=0;orthogonalLoop=1;jettySize=auto;html=1;entryX=0.5;entryY=1;entryDx=0;entryDy=0;" edge="1" parent="1" source="sV1ge9_GlTx5dRnqZGnU-9" target="sV1ge9_GlTx5dRnqZGnU-4">
          <mxGeometry relative="1" as="geometry" />
        </mxCell>
        <mxCell id="sV1ge9_GlTx5dRnqZGnU-20" value="认证" style="edgeLabel;html=1;align=center;verticalAlign=middle;resizable=0;points=[];" vertex="1" connectable="0" parent="sV1ge9_GlTx5dRnqZGnU-10">
          <mxGeometry x="-0.3355" relative="1" as="geometry">
            <mxPoint as="offset" />
          </mxGeometry>
        </mxCell>
        <mxCell id="sV1ge9_GlTx5dRnqZGnU-9" value="auth" style="rounded=1;whiteSpace=wrap;html=1;fillColor=#f8cecc;strokeColor=#b85450;" vertex="1" parent="1">
          <mxGeometry x="190" y="920" width="100" height="40" as="geometry" />
        </mxCell>
        <mxCell id="sV1ge9_GlTx5dRnqZGnU-17" style="edgeStyle=orthogonalEdgeStyle;rounded=0;orthogonalLoop=1;jettySize=auto;html=1;" edge="1" parent="1" source="sV1ge9_GlTx5dRnqZGnU-13">
          <mxGeometry relative="1" as="geometry">
            <mxPoint x="550" y="890" as="targetPoint" />
          </mxGeometry>
        </mxCell>
        <mxCell id="sV1ge9_GlTx5dRnqZGnU-22" value="节点A" style="edgeLabel;html=1;align=center;verticalAlign=middle;resizable=0;points=[];" vertex="1" connectable="0" parent="sV1ge9_GlTx5dRnqZGnU-17">
          <mxGeometry x="-0.7103" y="-2" relative="1" as="geometry">
            <mxPoint as="offset" />
          </mxGeometry>
        </mxCell>
        <mxCell id="sV1ge9_GlTx5dRnqZGnU-13" value="node-a" style="rounded=1;whiteSpace=wrap;html=1;fillColor=#f8cecc;strokeColor=#b85450;" vertex="1" parent="1">
          <mxGeometry x="190" y="1050" width="100" height="40" as="geometry" />
        </mxCell>
        <mxCell id="sV1ge9_GlTx5dRnqZGnU-15" style="edgeStyle=orthogonalEdgeStyle;rounded=0;orthogonalLoop=1;jettySize=auto;html=1;entryX=0.5;entryY=1;entryDx=0;entryDy=0;" edge="1" parent="1" source="sV1ge9_GlTx5dRnqZGnU-14" target="sV1ge9_GlTx5dRnqZGnU-4">
          <mxGeometry relative="1" as="geometry" />
        </mxCell>
        <mxCell id="sV1ge9_GlTx5dRnqZGnU-21" value="节点B" style="edgeLabel;html=1;align=center;verticalAlign=middle;resizable=0;points=[];" vertex="1" connectable="0" parent="sV1ge9_GlTx5dRnqZGnU-15">
          <mxGeometry x="-0.5636" relative="1" as="geometry">
            <mxPoint as="offset" />
          </mxGeometry>
        </mxCell>
        <mxCell id="sV1ge9_GlTx5dRnqZGnU-24" value="注册" style="edgeLabel;html=1;align=center;verticalAlign=middle;resizable=0;points=[];" vertex="1" connectable="0" parent="sV1ge9_GlTx5dRnqZGnU-15">
          <mxGeometry x="0.5838" y="-3" relative="1" as="geometry">
            <mxPoint as="offset" />
          </mxGeometry>
        </mxCell>
        <mxCell id="sV1ge9_GlTx5dRnqZGnU-14" value="node-b" style="rounded=1;whiteSpace=wrap;html=1;fillColor=#f8cecc;strokeColor=#b85450;" vertex="1" parent="1">
          <mxGeometry x="190" y="980" width="100" height="40" as="geometry" />
        </mxCell>
      </root>
    </mxGraphModel>
  </diagram>
</mxfile>
